<mxfile host="app.diagrams.net" modified="2024-05-06T05:16:44.140Z" agent="Mozilla/5.0 (Windows NT 10.0; Win64; x64) AppleWebKit/537.36 (KHTML, like Gecko) Chrome/124.0.0.0 Safari/537.36 Edg/124.0.0.0" etag="gs40Bj2sz1fV5qrSf1Qi" version="24.3.1" type="github">
  <diagram name="第 1 页" id="_1-z7fI1asy9sJeUVE4r">
    <mxGraphModel dx="1023" dy="349" grid="0" gridSize="10" guides="1" tooltips="1" connect="1" arrows="1" fold="1" page="0" pageScale="1" pageWidth="827" pageHeight="1169" math="0" shadow="0">
      <root>
        <mxCell id="0" />
        <mxCell id="1" parent="0" />
        <mxCell id="iR9o-ySRevlKhoYC4rnh-2" value="" style="shape=actor;whiteSpace=wrap;html=1;" vertex="1" parent="1">
          <mxGeometry x="-20" y="278" width="40" height="52" as="geometry" />
        </mxCell>
        <mxCell id="iR9o-ySRevlKhoYC4rnh-3" value="" style="shape=actor;whiteSpace=wrap;html=1;" vertex="1" parent="1">
          <mxGeometry x="44" y="278" width="40" height="52" as="geometry" />
        </mxCell>
        <mxCell id="iR9o-ySRevlKhoYC4rnh-4" value="" style="shape=actor;whiteSpace=wrap;html=1;" vertex="1" parent="1">
          <mxGeometry x="191" y="278" width="40" height="52" as="geometry" />
        </mxCell>
        <mxCell id="iR9o-ySRevlKhoYC4rnh-5" value="" style="shape=cylinder3;whiteSpace=wrap;html=1;boundedLbl=1;backgroundOutline=1;size=15;" vertex="1" parent="1">
          <mxGeometry x="58" y="73" width="90" height="58" as="geometry" />
        </mxCell>
        <mxCell id="iR9o-ySRevlKhoYC4rnh-51" style="edgeStyle=none;curved=1;rounded=0;orthogonalLoop=1;jettySize=auto;html=1;exitX=0.5;exitY=1;exitDx=0;exitDy=0;exitPerimeter=0;entryX=0.5;entryY=0;entryDx=0;entryDy=0;fontSize=12;startSize=8;endSize=8;" edge="1" parent="1" source="iR9o-ySRevlKhoYC4rnh-8" target="iR9o-ySRevlKhoYC4rnh-37">
          <mxGeometry relative="1" as="geometry" />
        </mxCell>
        <mxCell id="iR9o-ySRevlKhoYC4rnh-8" value="" style="shape=cylinder3;whiteSpace=wrap;html=1;boundedLbl=1;backgroundOutline=1;size=15;" vertex="1" parent="1">
          <mxGeometry x="-23.5" y="193" width="45.5" height="40" as="geometry" />
        </mxCell>
        <mxCell id="iR9o-ySRevlKhoYC4rnh-52" style="edgeStyle=none;curved=1;rounded=0;orthogonalLoop=1;jettySize=auto;html=1;exitX=0.5;exitY=1;exitDx=0;exitDy=0;exitPerimeter=0;entryX=0.5;entryY=0;entryDx=0;entryDy=0;fontSize=12;startSize=8;endSize=8;" edge="1" parent="1" source="iR9o-ySRevlKhoYC4rnh-10" target="iR9o-ySRevlKhoYC4rnh-45">
          <mxGeometry relative="1" as="geometry" />
        </mxCell>
        <mxCell id="iR9o-ySRevlKhoYC4rnh-10" value="" style="shape=cylinder3;whiteSpace=wrap;html=1;boundedLbl=1;backgroundOutline=1;size=15;" vertex="1" parent="1">
          <mxGeometry x="41.25" y="193" width="45.5" height="40" as="geometry" />
        </mxCell>
        <mxCell id="iR9o-ySRevlKhoYC4rnh-53" style="edgeStyle=none;curved=1;rounded=0;orthogonalLoop=1;jettySize=auto;html=1;exitX=0.5;exitY=1;exitDx=0;exitDy=0;exitPerimeter=0;entryX=0.5;entryY=0;entryDx=0;entryDy=0;fontSize=12;startSize=8;endSize=8;" edge="1" parent="1" source="iR9o-ySRevlKhoYC4rnh-11" target="iR9o-ySRevlKhoYC4rnh-46">
          <mxGeometry relative="1" as="geometry" />
        </mxCell>
        <mxCell id="iR9o-ySRevlKhoYC4rnh-11" value="" style="shape=cylinder3;whiteSpace=wrap;html=1;boundedLbl=1;backgroundOutline=1;size=15;" vertex="1" parent="1">
          <mxGeometry x="188.25" y="193" width="45.5" height="40" as="geometry" />
        </mxCell>
        <mxCell id="iR9o-ySRevlKhoYC4rnh-19" style="edgeStyle=none;curved=1;rounded=0;orthogonalLoop=1;jettySize=auto;html=1;exitX=0;exitY=1;exitDx=0;exitDy=-15;exitPerimeter=0;entryX=0.5;entryY=0;entryDx=0;entryDy=0;entryPerimeter=0;fontSize=12;startSize=8;endSize=8;" edge="1" parent="1" source="iR9o-ySRevlKhoYC4rnh-5" target="iR9o-ySRevlKhoYC4rnh-8">
          <mxGeometry relative="1" as="geometry" />
        </mxCell>
        <mxCell id="iR9o-ySRevlKhoYC4rnh-20" value="1" style="edgeLabel;html=1;align=center;verticalAlign=middle;resizable=0;points=[];fontSize=12;" vertex="1" connectable="0" parent="iR9o-ySRevlKhoYC4rnh-19">
          <mxGeometry x="-0.1872" relative="1" as="geometry">
            <mxPoint as="offset" />
          </mxGeometry>
        </mxCell>
        <mxCell id="iR9o-ySRevlKhoYC4rnh-24" style="edgeStyle=none;curved=1;rounded=0;orthogonalLoop=1;jettySize=auto;html=1;exitX=0.855;exitY=0;exitDx=0;exitDy=4.35;exitPerimeter=0;entryX=0.145;entryY=1;entryDx=0;entryDy=-4.35;entryPerimeter=0;fontSize=12;startSize=8;endSize=8;" edge="1" parent="1" source="iR9o-ySRevlKhoYC4rnh-8" target="iR9o-ySRevlKhoYC4rnh-5">
          <mxGeometry relative="1" as="geometry" />
        </mxCell>
        <mxCell id="iR9o-ySRevlKhoYC4rnh-25" value="2" style="edgeLabel;html=1;align=center;verticalAlign=middle;resizable=0;points=[];fontSize=12;" vertex="1" connectable="0" parent="iR9o-ySRevlKhoYC4rnh-24">
          <mxGeometry x="0.0833" y="-2" relative="1" as="geometry">
            <mxPoint as="offset" />
          </mxGeometry>
        </mxCell>
        <mxCell id="iR9o-ySRevlKhoYC4rnh-27" value="" style="endArrow=classic;html=1;rounded=0;fontSize=12;startSize=8;endSize=8;curved=1;entryX=0.5;entryY=0;entryDx=0;entryDy=0;entryPerimeter=0;" edge="1" parent="1" target="iR9o-ySRevlKhoYC4rnh-10">
          <mxGeometry width="50" height="50" relative="1" as="geometry">
            <mxPoint x="80" y="134" as="sourcePoint" />
            <mxPoint x="64" y="189" as="targetPoint" />
          </mxGeometry>
        </mxCell>
        <mxCell id="iR9o-ySRevlKhoYC4rnh-29" value="1" style="edgeLabel;html=1;align=center;verticalAlign=middle;resizable=0;points=[];fontSize=12;" vertex="1" connectable="0" parent="iR9o-ySRevlKhoYC4rnh-27">
          <mxGeometry x="-0.1204" relative="1" as="geometry">
            <mxPoint as="offset" />
          </mxGeometry>
        </mxCell>
        <mxCell id="iR9o-ySRevlKhoYC4rnh-28" style="edgeStyle=none;curved=1;rounded=0;orthogonalLoop=1;jettySize=auto;html=1;exitX=0.707;exitY=0.05;exitDx=0;exitDy=0;exitPerimeter=0;entryX=0.393;entryY=1;entryDx=0;entryDy=0;entryPerimeter=0;fontSize=12;startSize=8;endSize=8;" edge="1" parent="1" source="iR9o-ySRevlKhoYC4rnh-10" target="iR9o-ySRevlKhoYC4rnh-5">
          <mxGeometry relative="1" as="geometry" />
        </mxCell>
        <mxCell id="iR9o-ySRevlKhoYC4rnh-30" value="2" style="edgeLabel;html=1;align=center;verticalAlign=middle;resizable=0;points=[];fontSize=12;" vertex="1" connectable="0" parent="iR9o-ySRevlKhoYC4rnh-28">
          <mxGeometry x="0.014" y="-2" relative="1" as="geometry">
            <mxPoint x="-1" as="offset" />
          </mxGeometry>
        </mxCell>
        <mxCell id="iR9o-ySRevlKhoYC4rnh-32" style="edgeStyle=none;curved=1;rounded=0;orthogonalLoop=1;jettySize=auto;html=1;exitX=0.855;exitY=1;exitDx=0;exitDy=-4.35;exitPerimeter=0;entryX=0.145;entryY=0;entryDx=0;entryDy=4.35;entryPerimeter=0;fontSize=12;startSize=8;endSize=8;" edge="1" parent="1" source="iR9o-ySRevlKhoYC4rnh-5" target="iR9o-ySRevlKhoYC4rnh-11">
          <mxGeometry relative="1" as="geometry" />
        </mxCell>
        <mxCell id="iR9o-ySRevlKhoYC4rnh-34" value="1" style="edgeLabel;html=1;align=center;verticalAlign=middle;resizable=0;points=[];fontSize=12;" vertex="1" connectable="0" parent="iR9o-ySRevlKhoYC4rnh-32">
          <mxGeometry x="0.082" relative="1" as="geometry">
            <mxPoint as="offset" />
          </mxGeometry>
        </mxCell>
        <mxCell id="iR9o-ySRevlKhoYC4rnh-33" style="edgeStyle=none;curved=1;rounded=0;orthogonalLoop=1;jettySize=auto;html=1;exitX=0.5;exitY=0;exitDx=0;exitDy=0;exitPerimeter=0;entryX=1;entryY=1;entryDx=0;entryDy=-15;entryPerimeter=0;fontSize=12;startSize=8;endSize=8;" edge="1" parent="1" source="iR9o-ySRevlKhoYC4rnh-11" target="iR9o-ySRevlKhoYC4rnh-5">
          <mxGeometry relative="1" as="geometry" />
        </mxCell>
        <mxCell id="iR9o-ySRevlKhoYC4rnh-35" value="2" style="edgeLabel;html=1;align=center;verticalAlign=middle;resizable=0;points=[];fontSize=12;" vertex="1" connectable="0" parent="iR9o-ySRevlKhoYC4rnh-33">
          <mxGeometry x="0.011" relative="1" as="geometry">
            <mxPoint as="offset" />
          </mxGeometry>
        </mxCell>
        <mxCell id="iR9o-ySRevlKhoYC4rnh-37" value="" style="rounded=0;whiteSpace=wrap;html=1;" vertex="1" parent="1">
          <mxGeometry x="-30.75" y="249" width="60" height="13.5" as="geometry" />
        </mxCell>
        <mxCell id="iR9o-ySRevlKhoYC4rnh-38" value="全局模型" style="text;html=1;align=center;verticalAlign=middle;whiteSpace=wrap;rounded=0;fontSize=16;" vertex="1" parent="1">
          <mxGeometry x="-115.5" y="81" width="71" height="30" as="geometry" />
        </mxCell>
        <mxCell id="iR9o-ySRevlKhoYC4rnh-39" value="本地模型" style="text;html=1;align=center;verticalAlign=middle;whiteSpace=wrap;rounded=0;fontSize=16;" vertex="1" parent="1">
          <mxGeometry x="-114" y="196" width="71" height="30" as="geometry" />
        </mxCell>
        <mxCell id="iR9o-ySRevlKhoYC4rnh-40" value="本地数据" style="text;html=1;align=center;verticalAlign=middle;whiteSpace=wrap;rounded=0;fontSize=16;" vertex="1" parent="1">
          <mxGeometry x="-112.5" y="240.5" width="68" height="30" as="geometry" />
        </mxCell>
        <mxCell id="iR9o-ySRevlKhoYC4rnh-41" value="参与者" style="text;html=1;align=center;verticalAlign=middle;whiteSpace=wrap;rounded=0;fontSize=16;" vertex="1" parent="1">
          <mxGeometry x="-210" y="203" width="68" height="30" as="geometry" />
        </mxCell>
        <mxCell id="iR9o-ySRevlKhoYC4rnh-42" value="" style="endArrow=none;dashed=1;html=1;dashPattern=1 3;strokeWidth=2;rounded=0;fontSize=12;startSize=8;endSize=8;curved=1;" edge="1" parent="1">
          <mxGeometry width="50" height="50" relative="1" as="geometry">
            <mxPoint x="-213" y="172" as="sourcePoint" />
            <mxPoint x="271" y="172" as="targetPoint" />
          </mxGeometry>
        </mxCell>
        <mxCell id="iR9o-ySRevlKhoYC4rnh-43" value="服务器" style="text;html=1;align=center;verticalAlign=middle;whiteSpace=wrap;rounded=0;fontSize=16;" vertex="1" parent="1">
          <mxGeometry x="-207" y="101" width="68" height="30" as="geometry" />
        </mxCell>
        <mxCell id="iR9o-ySRevlKhoYC4rnh-45" value="" style="rounded=0;whiteSpace=wrap;html=1;" vertex="1" parent="1">
          <mxGeometry x="34" y="249" width="60" height="13.5" as="geometry" />
        </mxCell>
        <mxCell id="iR9o-ySRevlKhoYC4rnh-46" value="" style="rounded=0;whiteSpace=wrap;html=1;" vertex="1" parent="1">
          <mxGeometry x="181" y="249" width="60" height="13" as="geometry" />
        </mxCell>
        <mxCell id="iR9o-ySRevlKhoYC4rnh-47" value="&lt;b&gt;&lt;font style=&quot;font-size: 24px;&quot;&gt;…&lt;/font&gt;&lt;/b&gt;" style="text;html=1;align=center;verticalAlign=middle;whiteSpace=wrap;rounded=0;fontSize=16;" vertex="1" parent="1">
          <mxGeometry x="111" y="191" width="53" height="32" as="geometry" />
        </mxCell>
        <mxCell id="iR9o-ySRevlKhoYC4rnh-48" value="&lt;b&gt;&lt;font style=&quot;font-size: 24px;&quot;&gt;…&lt;/font&gt;&lt;/b&gt;" style="text;html=1;align=center;verticalAlign=middle;whiteSpace=wrap;rounded=0;fontSize=16;" vertex="1" parent="1">
          <mxGeometry x="111" y="283" width="53" height="32" as="geometry" />
        </mxCell>
        <mxCell id="iR9o-ySRevlKhoYC4rnh-49" value="&lt;b&gt;&lt;font style=&quot;font-size: 24px;&quot;&gt;…&lt;/font&gt;&lt;/b&gt;" style="text;html=1;align=center;verticalAlign=middle;whiteSpace=wrap;rounded=0;fontSize=16;" vertex="1" parent="1">
          <mxGeometry x="111" y="233" width="53" height="32" as="geometry" />
        </mxCell>
        <mxCell id="iR9o-ySRevlKhoYC4rnh-54" value="&lt;font style=&quot;font-size: 11px;&quot;&gt;训练&lt;/font&gt;" style="text;html=1;align=center;verticalAlign=middle;whiteSpace=wrap;rounded=0;fontSize=16;fontStyle=1" vertex="1" parent="1">
          <mxGeometry x="-52" y="223" width="60" height="30" as="geometry" />
        </mxCell>
        <mxCell id="iR9o-ySRevlKhoYC4rnh-59" value="数据&lt;div&gt;所有者&lt;/div&gt;" style="text;html=1;align=center;verticalAlign=middle;whiteSpace=wrap;rounded=0;fontSize=16;" vertex="1" parent="1">
          <mxGeometry x="-112.5" y="295" width="68" height="30" as="geometry" />
        </mxCell>
        <mxCell id="iR9o-ySRevlKhoYC4rnh-62" value="" style="verticalLabelPosition=bottom;verticalAlign=top;html=1;shape=mxgraph.basic.x;fillColor=#f8cecc;strokeColor=#b85450;" vertex="1" parent="1">
          <mxGeometry x="-10" y="308" width="20" height="20" as="geometry" />
        </mxCell>
        <mxCell id="iR9o-ySRevlKhoYC4rnh-63" value="" style="verticalLabelPosition=bottom;verticalAlign=top;html=1;shape=mxgraph.basic.rect;fillColor2=none;strokeWidth=1;size=6;indent=0;fillColor=#f8cecc;strokeColor=#b85450;" vertex="1" parent="1">
          <mxGeometry x="-30.75" y="249.5" width="14" height="12" as="geometry" />
        </mxCell>
        <mxCell id="iR9o-ySRevlKhoYC4rnh-64" value="" style="shape=actor;whiteSpace=wrap;html=1;" vertex="1" parent="1">
          <mxGeometry x="-54" y="691" width="40" height="52" as="geometry" />
        </mxCell>
        <mxCell id="iR9o-ySRevlKhoYC4rnh-65" value="" style="shape=actor;whiteSpace=wrap;html=1;" vertex="1" parent="1">
          <mxGeometry x="50" y="691" width="40" height="52" as="geometry" />
        </mxCell>
        <mxCell id="iR9o-ySRevlKhoYC4rnh-66" value="" style="shape=actor;whiteSpace=wrap;html=1;" vertex="1" parent="1">
          <mxGeometry x="197" y="691" width="40" height="52" as="geometry" />
        </mxCell>
        <mxCell id="iR9o-ySRevlKhoYC4rnh-67" value="" style="shape=cylinder3;whiteSpace=wrap;html=1;boundedLbl=1;backgroundOutline=1;size=15;" vertex="1" parent="1">
          <mxGeometry x="64" y="486" width="90" height="58" as="geometry" />
        </mxCell>
        <mxCell id="iR9o-ySRevlKhoYC4rnh-68" style="edgeStyle=none;curved=1;rounded=0;orthogonalLoop=1;jettySize=auto;html=1;exitX=0.5;exitY=1;exitDx=0;exitDy=0;exitPerimeter=0;entryX=0.5;entryY=0;entryDx=0;entryDy=0;fontSize=12;startSize=8;endSize=8;" edge="1" parent="1" source="iR9o-ySRevlKhoYC4rnh-69" target="iR9o-ySRevlKhoYC4rnh-86">
          <mxGeometry relative="1" as="geometry" />
        </mxCell>
        <mxCell id="iR9o-ySRevlKhoYC4rnh-112" value="&lt;font style=&quot;font-size: 10px;&quot;&gt;3&lt;/font&gt;" style="edgeLabel;html=1;align=center;verticalAlign=middle;resizable=0;points=[];fontSize=12;" vertex="1" connectable="0" parent="iR9o-ySRevlKhoYC4rnh-68">
          <mxGeometry x="-0.2393" y="2" relative="1" as="geometry">
            <mxPoint x="6" y="-1" as="offset" />
          </mxGeometry>
        </mxCell>
        <mxCell id="iR9o-ySRevlKhoYC4rnh-69" value="" style="shape=cylinder3;whiteSpace=wrap;html=1;boundedLbl=1;backgroundOutline=1;size=15;" vertex="1" parent="1">
          <mxGeometry x="-17.5" y="606" width="45.5" height="40" as="geometry" />
        </mxCell>
        <mxCell id="iR9o-ySRevlKhoYC4rnh-70" style="edgeStyle=none;curved=1;rounded=0;orthogonalLoop=1;jettySize=auto;html=1;exitX=0.5;exitY=1;exitDx=0;exitDy=0;exitPerimeter=0;entryX=0.5;entryY=0;entryDx=0;entryDy=0;fontSize=12;startSize=8;endSize=8;" edge="1" parent="1" source="iR9o-ySRevlKhoYC4rnh-71" target="iR9o-ySRevlKhoYC4rnh-93">
          <mxGeometry relative="1" as="geometry" />
        </mxCell>
        <mxCell id="iR9o-ySRevlKhoYC4rnh-71" value="" style="shape=cylinder3;whiteSpace=wrap;html=1;boundedLbl=1;backgroundOutline=1;size=15;" vertex="1" parent="1">
          <mxGeometry x="47.25" y="606" width="45.5" height="40" as="geometry" />
        </mxCell>
        <mxCell id="iR9o-ySRevlKhoYC4rnh-72" style="edgeStyle=none;curved=1;rounded=0;orthogonalLoop=1;jettySize=auto;html=1;exitX=0.5;exitY=1;exitDx=0;exitDy=0;exitPerimeter=0;entryX=0.5;entryY=0;entryDx=0;entryDy=0;fontSize=12;startSize=8;endSize=8;" edge="1" parent="1" source="iR9o-ySRevlKhoYC4rnh-73" target="iR9o-ySRevlKhoYC4rnh-94">
          <mxGeometry relative="1" as="geometry" />
        </mxCell>
        <mxCell id="iR9o-ySRevlKhoYC4rnh-73" value="" style="shape=cylinder3;whiteSpace=wrap;html=1;boundedLbl=1;backgroundOutline=1;size=15;" vertex="1" parent="1">
          <mxGeometry x="194.25" y="606" width="45.5" height="40" as="geometry" />
        </mxCell>
        <mxCell id="iR9o-ySRevlKhoYC4rnh-74" style="edgeStyle=none;curved=1;rounded=0;orthogonalLoop=1;jettySize=auto;html=1;exitX=0.031;exitY=0.838;exitDx=0;exitDy=0;exitPerimeter=0;entryX=0.5;entryY=0;entryDx=0;entryDy=0;entryPerimeter=0;fontSize=12;startSize=8;endSize=8;" edge="1" parent="1" source="iR9o-ySRevlKhoYC4rnh-67" target="iR9o-ySRevlKhoYC4rnh-69">
          <mxGeometry relative="1" as="geometry" />
        </mxCell>
        <mxCell id="iR9o-ySRevlKhoYC4rnh-76" style="edgeStyle=none;curved=1;rounded=0;orthogonalLoop=1;jettySize=auto;html=1;exitX=0.855;exitY=0;exitDx=0;exitDy=4.35;exitPerimeter=0;entryX=0.145;entryY=1;entryDx=0;entryDy=-4.35;entryPerimeter=0;fontSize=12;startSize=8;endSize=8;" edge="1" parent="1" source="iR9o-ySRevlKhoYC4rnh-69" target="iR9o-ySRevlKhoYC4rnh-67">
          <mxGeometry relative="1" as="geometry" />
        </mxCell>
        <mxCell id="iR9o-ySRevlKhoYC4rnh-78" value="" style="endArrow=classic;html=1;rounded=0;fontSize=12;startSize=8;endSize=8;curved=1;entryX=0.5;entryY=0;entryDx=0;entryDy=0;entryPerimeter=0;" edge="1" parent="1" target="iR9o-ySRevlKhoYC4rnh-71">
          <mxGeometry width="50" height="50" relative="1" as="geometry">
            <mxPoint x="86" y="547" as="sourcePoint" />
            <mxPoint x="70" y="602" as="targetPoint" />
          </mxGeometry>
        </mxCell>
        <mxCell id="iR9o-ySRevlKhoYC4rnh-80" style="edgeStyle=none;curved=1;rounded=0;orthogonalLoop=1;jettySize=auto;html=1;exitX=0.707;exitY=0.05;exitDx=0;exitDy=0;exitPerimeter=0;entryX=0.393;entryY=1;entryDx=0;entryDy=0;entryPerimeter=0;fontSize=12;startSize=8;endSize=8;" edge="1" parent="1" source="iR9o-ySRevlKhoYC4rnh-71" target="iR9o-ySRevlKhoYC4rnh-67">
          <mxGeometry relative="1" as="geometry" />
        </mxCell>
        <mxCell id="iR9o-ySRevlKhoYC4rnh-82" style="edgeStyle=none;curved=1;rounded=0;orthogonalLoop=1;jettySize=auto;html=1;exitX=0.855;exitY=1;exitDx=0;exitDy=-4.35;exitPerimeter=0;entryX=0.145;entryY=0;entryDx=0;entryDy=4.35;entryPerimeter=0;fontSize=12;startSize=8;endSize=8;" edge="1" parent="1" source="iR9o-ySRevlKhoYC4rnh-67" target="iR9o-ySRevlKhoYC4rnh-73">
          <mxGeometry relative="1" as="geometry" />
        </mxCell>
        <mxCell id="iR9o-ySRevlKhoYC4rnh-84" style="edgeStyle=none;curved=1;rounded=0;orthogonalLoop=1;jettySize=auto;html=1;exitX=0.5;exitY=0;exitDx=0;exitDy=0;exitPerimeter=0;entryX=1;entryY=1;entryDx=0;entryDy=-15;entryPerimeter=0;fontSize=12;startSize=8;endSize=8;" edge="1" parent="1" source="iR9o-ySRevlKhoYC4rnh-73" target="iR9o-ySRevlKhoYC4rnh-67">
          <mxGeometry relative="1" as="geometry" />
        </mxCell>
        <mxCell id="iR9o-ySRevlKhoYC4rnh-86" value="" style="rounded=0;whiteSpace=wrap;html=1;" vertex="1" parent="1">
          <mxGeometry x="-24.75" y="662" width="60" height="13.5" as="geometry" />
        </mxCell>
        <mxCell id="iR9o-ySRevlKhoYC4rnh-93" value="" style="rounded=0;whiteSpace=wrap;html=1;" vertex="1" parent="1">
          <mxGeometry x="40" y="662" width="60" height="13.5" as="geometry" />
        </mxCell>
        <mxCell id="iR9o-ySRevlKhoYC4rnh-94" value="" style="rounded=0;whiteSpace=wrap;html=1;" vertex="1" parent="1">
          <mxGeometry x="187" y="662" width="60" height="13" as="geometry" />
        </mxCell>
        <mxCell id="iR9o-ySRevlKhoYC4rnh-95" value="&lt;b&gt;&lt;font style=&quot;font-size: 24px;&quot;&gt;…&lt;/font&gt;&lt;/b&gt;" style="text;html=1;align=center;verticalAlign=middle;whiteSpace=wrap;rounded=0;fontSize=16;" vertex="1" parent="1">
          <mxGeometry x="117" y="604" width="53" height="32" as="geometry" />
        </mxCell>
        <mxCell id="iR9o-ySRevlKhoYC4rnh-96" value="&lt;b&gt;&lt;font style=&quot;font-size: 24px;&quot;&gt;…&lt;/font&gt;&lt;/b&gt;" style="text;html=1;align=center;verticalAlign=middle;whiteSpace=wrap;rounded=0;fontSize=16;" vertex="1" parent="1">
          <mxGeometry x="117" y="696" width="53" height="32" as="geometry" />
        </mxCell>
        <mxCell id="iR9o-ySRevlKhoYC4rnh-97" value="&lt;b&gt;&lt;font style=&quot;font-size: 24px;&quot;&gt;…&lt;/font&gt;&lt;/b&gt;" style="text;html=1;align=center;verticalAlign=middle;whiteSpace=wrap;rounded=0;fontSize=16;" vertex="1" parent="1">
          <mxGeometry x="117" y="646" width="53" height="32" as="geometry" />
        </mxCell>
        <mxCell id="iR9o-ySRevlKhoYC4rnh-100" value="" style="verticalLabelPosition=bottom;verticalAlign=top;html=1;shape=mxgraph.basic.x;fillColor=#f8cecc;strokeColor=#b85450;" vertex="1" parent="1">
          <mxGeometry x="-44" y="721" width="20" height="20" as="geometry" />
        </mxCell>
        <mxCell id="iR9o-ySRevlKhoYC4rnh-101" value="" style="verticalLabelPosition=bottom;verticalAlign=top;html=1;shape=mxgraph.basic.rect;fillColor2=none;strokeWidth=1;size=6;indent=0;fillColor=#f8cecc;strokeColor=#b85450;" vertex="1" parent="1">
          <mxGeometry x="-24.75" y="662.5" width="14" height="12" as="geometry" />
        </mxCell>
        <mxCell id="iR9o-ySRevlKhoYC4rnh-102" style="edgeStyle=none;curved=1;rounded=0;orthogonalLoop=1;jettySize=auto;html=1;exitX=0.5;exitY=1;exitDx=0;exitDy=0;exitPerimeter=0;entryX=0.7;entryY=0.046;entryDx=0;entryDy=0;fontSize=12;startSize=8;endSize=8;entryPerimeter=0;" edge="1" parent="1" source="iR9o-ySRevlKhoYC4rnh-103" target="iR9o-ySRevlKhoYC4rnh-105">
          <mxGeometry relative="1" as="geometry" />
        </mxCell>
        <mxCell id="iR9o-ySRevlKhoYC4rnh-110" value="1" style="edgeLabel;html=1;align=center;verticalAlign=middle;resizable=0;points=[];fontSize=9;" vertex="1" connectable="0" parent="iR9o-ySRevlKhoYC4rnh-102">
          <mxGeometry x="-0.4183" y="-1" relative="1" as="geometry">
            <mxPoint x="1" y="4" as="offset" />
          </mxGeometry>
        </mxCell>
        <mxCell id="iR9o-ySRevlKhoYC4rnh-103" value="" style="shape=cylinder3;whiteSpace=wrap;html=1;boundedLbl=1;backgroundOutline=1;size=15;fillColor=#f8cecc;strokeColor=#b85450;" vertex="1" parent="1">
          <mxGeometry x="-95.75" y="606" width="45.5" height="40" as="geometry" />
        </mxCell>
        <mxCell id="iR9o-ySRevlKhoYC4rnh-104" value="" style="rounded=0;whiteSpace=wrap;html=1;" vertex="1" parent="1">
          <mxGeometry x="-103" y="662" width="60" height="13.5" as="geometry" />
        </mxCell>
        <mxCell id="iR9o-ySRevlKhoYC4rnh-105" value="" style="verticalLabelPosition=bottom;verticalAlign=top;html=1;shape=mxgraph.basic.rect;fillColor2=none;strokeWidth=1;size=6;indent=0;fillColor=#f8cecc;strokeColor=#b85450;" vertex="1" parent="1">
          <mxGeometry x="-103" y="662.5" width="14" height="12" as="geometry" />
        </mxCell>
        <mxCell id="iR9o-ySRevlKhoYC4rnh-107" value="" style="rounded=1;whiteSpace=wrap;html=1;dashed=1;dashPattern=1 1;fillColor=none;strokeColor=#EA6B66;" vertex="1" parent="1">
          <mxGeometry x="-106.75" y="598" width="144.75" height="152" as="geometry" />
        </mxCell>
        <mxCell id="iR9o-ySRevlKhoYC4rnh-108" value="" style="curved=1;endArrow=classic;html=1;rounded=0;fontSize=12;startSize=8;endSize=8;entryX=0.564;entryY=1.113;entryDx=0;entryDy=0;entryPerimeter=0;exitX=0.286;exitY=0.958;exitDx=0;exitDy=0;exitPerimeter=0;" edge="1" parent="1" source="iR9o-ySRevlKhoYC4rnh-105" target="iR9o-ySRevlKhoYC4rnh-101">
          <mxGeometry width="50" height="50" relative="1" as="geometry">
            <mxPoint x="-96" y="677" as="sourcePoint" />
            <mxPoint x="-39" y="691" as="targetPoint" />
            <Array as="points">
              <mxPoint x="-86" y="685" />
              <mxPoint x="-53" y="689" />
              <mxPoint x="-27" y="683" />
            </Array>
          </mxGeometry>
        </mxCell>
        <mxCell id="iR9o-ySRevlKhoYC4rnh-111" value="&lt;font style=&quot;font-size: 10px;&quot;&gt;2&lt;/font&gt;" style="edgeLabel;html=1;align=center;verticalAlign=middle;resizable=0;points=[];fontSize=12;" vertex="1" connectable="0" parent="iR9o-ySRevlKhoYC4rnh-108">
          <mxGeometry x="-0.1744" relative="1" as="geometry">
            <mxPoint as="offset" />
          </mxGeometry>
        </mxCell>
        <mxCell id="iR9o-ySRevlKhoYC4rnh-113" value="恶意参与者" style="text;html=1;align=center;verticalAlign=middle;whiteSpace=wrap;rounded=0;fontSize=16;" vertex="1" parent="1">
          <mxGeometry x="-78.87" y="757" width="89.75" height="30" as="geometry" />
        </mxCell>
        <mxCell id="iR9o-ySRevlKhoYC4rnh-114" value="诚实参与者" style="text;html=1;align=center;verticalAlign=middle;whiteSpace=wrap;rounded=0;fontSize=16;" vertex="1" parent="1">
          <mxGeometry x="98.63" y="757" width="89.75" height="30" as="geometry" />
        </mxCell>
        <mxCell id="iR9o-ySRevlKhoYC4rnh-115" value="&lt;font style=&quot;font-size: 13px;&quot;&gt;后门触发器&lt;/font&gt;" style="text;html=1;align=center;verticalAlign=middle;whiteSpace=wrap;rounded=0;fontSize=16;" vertex="1" parent="1">
          <mxGeometry x="-191" y="651" width="69" height="30" as="geometry" />
        </mxCell>
        <mxCell id="iR9o-ySRevlKhoYC4rnh-122" value="&lt;span style=&quot;font-size: 13px;&quot;&gt;有毒模型&lt;/span&gt;" style="text;html=1;align=center;verticalAlign=middle;whiteSpace=wrap;rounded=0;fontSize=16;" vertex="1" parent="1">
          <mxGeometry x="-191" y="611" width="69" height="30" as="geometry" />
        </mxCell>
        <mxCell id="iR9o-ySRevlKhoYC4rnh-123" value="" style="shape=actor;whiteSpace=wrap;html=1;" vertex="1" parent="1">
          <mxGeometry x="40.25" y="1057" width="40" height="52" as="geometry" />
        </mxCell>
        <mxCell id="iR9o-ySRevlKhoYC4rnh-124" value="" style="shape=actor;whiteSpace=wrap;html=1;" vertex="1" parent="1">
          <mxGeometry x="105" y="1057" width="40" height="52" as="geometry" />
        </mxCell>
        <mxCell id="iR9o-ySRevlKhoYC4rnh-125" value="" style="shape=actor;whiteSpace=wrap;html=1;" vertex="1" parent="1">
          <mxGeometry x="252" y="1057" width="40" height="52" as="geometry" />
        </mxCell>
        <mxCell id="iR9o-ySRevlKhoYC4rnh-126" value="" style="shape=cylinder3;whiteSpace=wrap;html=1;boundedLbl=1;backgroundOutline=1;size=15;" vertex="1" parent="1">
          <mxGeometry x="119" y="852" width="90" height="58" as="geometry" />
        </mxCell>
        <mxCell id="iR9o-ySRevlKhoYC4rnh-127" style="edgeStyle=none;curved=1;rounded=0;orthogonalLoop=1;jettySize=auto;html=1;exitX=0.5;exitY=1;exitDx=0;exitDy=0;exitPerimeter=0;entryX=0.5;entryY=0;entryDx=0;entryDy=0;fontSize=12;startSize=8;endSize=8;" edge="1" parent="1" source="iR9o-ySRevlKhoYC4rnh-129" target="iR9o-ySRevlKhoYC4rnh-140">
          <mxGeometry relative="1" as="geometry" />
        </mxCell>
        <mxCell id="iR9o-ySRevlKhoYC4rnh-129" value="" style="shape=cylinder3;whiteSpace=wrap;html=1;boundedLbl=1;backgroundOutline=1;size=15;fillColor=#f8cecc;strokeColor=#b85450;" vertex="1" parent="1">
          <mxGeometry x="37.5" y="972" width="45.5" height="40" as="geometry" />
        </mxCell>
        <mxCell id="iR9o-ySRevlKhoYC4rnh-130" style="edgeStyle=none;curved=1;rounded=0;orthogonalLoop=1;jettySize=auto;html=1;exitX=0.5;exitY=1;exitDx=0;exitDy=0;exitPerimeter=0;entryX=0.5;entryY=0;entryDx=0;entryDy=0;fontSize=12;startSize=8;endSize=8;" edge="1" parent="1" source="iR9o-ySRevlKhoYC4rnh-131" target="iR9o-ySRevlKhoYC4rnh-141">
          <mxGeometry relative="1" as="geometry" />
        </mxCell>
        <mxCell id="iR9o-ySRevlKhoYC4rnh-131" value="" style="shape=cylinder3;whiteSpace=wrap;html=1;boundedLbl=1;backgroundOutline=1;size=15;" vertex="1" parent="1">
          <mxGeometry x="102.25" y="972" width="45.5" height="40" as="geometry" />
        </mxCell>
        <mxCell id="iR9o-ySRevlKhoYC4rnh-132" style="edgeStyle=none;curved=1;rounded=0;orthogonalLoop=1;jettySize=auto;html=1;exitX=0.5;exitY=1;exitDx=0;exitDy=0;exitPerimeter=0;entryX=0.5;entryY=0;entryDx=0;entryDy=0;fontSize=12;startSize=8;endSize=8;" edge="1" parent="1" source="iR9o-ySRevlKhoYC4rnh-133" target="iR9o-ySRevlKhoYC4rnh-142">
          <mxGeometry relative="1" as="geometry" />
        </mxCell>
        <mxCell id="iR9o-ySRevlKhoYC4rnh-133" value="" style="shape=cylinder3;whiteSpace=wrap;html=1;boundedLbl=1;backgroundOutline=1;size=15;" vertex="1" parent="1">
          <mxGeometry x="249.25" y="972" width="45.5" height="40" as="geometry" />
        </mxCell>
        <mxCell id="iR9o-ySRevlKhoYC4rnh-134" style="edgeStyle=none;curved=1;rounded=0;orthogonalLoop=1;jettySize=auto;html=1;exitX=0.031;exitY=0.838;exitDx=0;exitDy=0;exitPerimeter=0;entryX=0.5;entryY=0;entryDx=0;entryDy=0;entryPerimeter=0;fontSize=12;startSize=8;endSize=8;" edge="1" parent="1" source="iR9o-ySRevlKhoYC4rnh-126" target="iR9o-ySRevlKhoYC4rnh-129">
          <mxGeometry relative="1" as="geometry" />
        </mxCell>
        <mxCell id="iR9o-ySRevlKhoYC4rnh-135" style="edgeStyle=none;curved=1;rounded=0;orthogonalLoop=1;jettySize=auto;html=1;exitX=0.855;exitY=0;exitDx=0;exitDy=4.35;exitPerimeter=0;entryX=0.145;entryY=1;entryDx=0;entryDy=-4.35;entryPerimeter=0;fontSize=12;startSize=8;endSize=8;" edge="1" parent="1" source="iR9o-ySRevlKhoYC4rnh-129" target="iR9o-ySRevlKhoYC4rnh-126">
          <mxGeometry relative="1" as="geometry" />
        </mxCell>
        <mxCell id="iR9o-ySRevlKhoYC4rnh-136" value="" style="endArrow=classic;html=1;rounded=0;fontSize=12;startSize=8;endSize=8;curved=1;entryX=0.5;entryY=0;entryDx=0;entryDy=0;entryPerimeter=0;" edge="1" parent="1" target="iR9o-ySRevlKhoYC4rnh-131">
          <mxGeometry width="50" height="50" relative="1" as="geometry">
            <mxPoint x="141" y="913" as="sourcePoint" />
            <mxPoint x="125" y="968" as="targetPoint" />
          </mxGeometry>
        </mxCell>
        <mxCell id="iR9o-ySRevlKhoYC4rnh-137" style="edgeStyle=none;curved=1;rounded=0;orthogonalLoop=1;jettySize=auto;html=1;exitX=0.707;exitY=0.05;exitDx=0;exitDy=0;exitPerimeter=0;entryX=0.393;entryY=1;entryDx=0;entryDy=0;entryPerimeter=0;fontSize=12;startSize=8;endSize=8;" edge="1" parent="1" source="iR9o-ySRevlKhoYC4rnh-131" target="iR9o-ySRevlKhoYC4rnh-126">
          <mxGeometry relative="1" as="geometry" />
        </mxCell>
        <mxCell id="iR9o-ySRevlKhoYC4rnh-138" style="edgeStyle=none;curved=1;rounded=0;orthogonalLoop=1;jettySize=auto;html=1;exitX=0.855;exitY=1;exitDx=0;exitDy=-4.35;exitPerimeter=0;entryX=0.145;entryY=0;entryDx=0;entryDy=4.35;entryPerimeter=0;fontSize=12;startSize=8;endSize=8;" edge="1" parent="1" source="iR9o-ySRevlKhoYC4rnh-126" target="iR9o-ySRevlKhoYC4rnh-133">
          <mxGeometry relative="1" as="geometry" />
        </mxCell>
        <mxCell id="iR9o-ySRevlKhoYC4rnh-139" style="edgeStyle=none;curved=1;rounded=0;orthogonalLoop=1;jettySize=auto;html=1;exitX=0.5;exitY=0;exitDx=0;exitDy=0;exitPerimeter=0;entryX=1;entryY=1;entryDx=0;entryDy=-15;entryPerimeter=0;fontSize=12;startSize=8;endSize=8;" edge="1" parent="1" source="iR9o-ySRevlKhoYC4rnh-133" target="iR9o-ySRevlKhoYC4rnh-126">
          <mxGeometry relative="1" as="geometry" />
        </mxCell>
        <mxCell id="iR9o-ySRevlKhoYC4rnh-140" value="" style="rounded=0;whiteSpace=wrap;html=1;fillColor=#f8cecc;strokeColor=#b85450;" vertex="1" parent="1">
          <mxGeometry x="30.25" y="1028" width="60" height="13.5" as="geometry" />
        </mxCell>
        <mxCell id="iR9o-ySRevlKhoYC4rnh-141" value="" style="rounded=0;whiteSpace=wrap;html=1;" vertex="1" parent="1">
          <mxGeometry x="95" y="1028" width="60" height="13.5" as="geometry" />
        </mxCell>
        <mxCell id="iR9o-ySRevlKhoYC4rnh-142" value="" style="rounded=0;whiteSpace=wrap;html=1;" vertex="1" parent="1">
          <mxGeometry x="242" y="1028" width="60" height="13" as="geometry" />
        </mxCell>
        <mxCell id="iR9o-ySRevlKhoYC4rnh-143" value="&lt;b&gt;&lt;font style=&quot;font-size: 24px;&quot;&gt;…&lt;/font&gt;&lt;/b&gt;" style="text;html=1;align=center;verticalAlign=middle;whiteSpace=wrap;rounded=0;fontSize=16;" vertex="1" parent="1">
          <mxGeometry x="172" y="970" width="53" height="32" as="geometry" />
        </mxCell>
        <mxCell id="iR9o-ySRevlKhoYC4rnh-144" value="&lt;b&gt;&lt;font style=&quot;font-size: 24px;&quot;&gt;…&lt;/font&gt;&lt;/b&gt;" style="text;html=1;align=center;verticalAlign=middle;whiteSpace=wrap;rounded=0;fontSize=16;" vertex="1" parent="1">
          <mxGeometry x="172" y="1062" width="53" height="32" as="geometry" />
        </mxCell>
        <mxCell id="iR9o-ySRevlKhoYC4rnh-145" value="&lt;b&gt;&lt;font style=&quot;font-size: 24px;&quot;&gt;…&lt;/font&gt;&lt;/b&gt;" style="text;html=1;align=center;verticalAlign=middle;whiteSpace=wrap;rounded=0;fontSize=16;" vertex="1" parent="1">
          <mxGeometry x="172" y="1012" width="53" height="32" as="geometry" />
        </mxCell>
        <mxCell id="iR9o-ySRevlKhoYC4rnh-146" value="" style="verticalLabelPosition=bottom;verticalAlign=top;html=1;shape=mxgraph.basic.x;fillColor=#f8cecc;strokeColor=#b85450;" vertex="1" parent="1">
          <mxGeometry x="50.25" y="1087" width="20" height="20" as="geometry" />
        </mxCell>
        <mxCell id="iR9o-ySRevlKhoYC4rnh-153" value="" style="rounded=1;whiteSpace=wrap;html=1;dashed=1;dashPattern=1 1;fillColor=none;strokeColor=#EA6B66;" vertex="1" parent="1">
          <mxGeometry x="24" y="966" width="68.75" height="152" as="geometry" />
        </mxCell>
        <mxCell id="iR9o-ySRevlKhoYC4rnh-156" value="恶意参与者" style="text;html=1;align=center;verticalAlign=middle;whiteSpace=wrap;rounded=0;fontSize=16;" vertex="1" parent="1">
          <mxGeometry x="15.379999999999995" y="1123" width="89.75" height="30" as="geometry" />
        </mxCell>
        <mxCell id="iR9o-ySRevlKhoYC4rnh-157" value="诚实参与者" style="text;html=1;align=center;verticalAlign=middle;whiteSpace=wrap;rounded=0;fontSize=16;" vertex="1" parent="1">
          <mxGeometry x="153.63" y="1123" width="89.75" height="30" as="geometry" />
        </mxCell>
        <mxCell id="iR9o-ySRevlKhoYC4rnh-158" value="&lt;font style=&quot;font-size: 13px;&quot;&gt;有毒数据&lt;/font&gt;" style="text;html=1;align=center;verticalAlign=middle;whiteSpace=wrap;rounded=0;fontSize=16;" vertex="1" parent="1">
          <mxGeometry x="-56" y="1017" width="69" height="30" as="geometry" />
        </mxCell>
        <mxCell id="iR9o-ySRevlKhoYC4rnh-159" value="&lt;span style=&quot;font-size: 13px;&quot;&gt;有毒模型&lt;/span&gt;" style="text;html=1;align=center;verticalAlign=middle;whiteSpace=wrap;rounded=0;fontSize=16;" vertex="1" parent="1">
          <mxGeometry x="-56" y="977" width="69" height="30" as="geometry" />
        </mxCell>
      </root>
    </mxGraphModel>
  </diagram>
</mxfile>
